<?xml version="1.0" standalone="no"?>
<!DOCTYPE svg PUBLIC "-//W3C//DTD SVG 20010904//EN"
 "http://www.w3.org/TR/2001/REC-SVG-20010904/DTD/svg10.dtd">
<svg version="1.0" xmlns="http://www.w3.org/2000/svg"
 width="947.000000pt" height="639.000000pt" viewBox="0 0 947.000000 639.000000"
 preserveAspectRatio="xMidYMid meet">
<metadata>
Created by potrace 1.13, written by Peter Selinger 2001-2015
</metadata>
<g transform="translate(0.000000,639.000000) scale(0.100000,-0.100000)"
fill="#000000" stroke="none">
<path d="
-2 0 579 0 578 178 6 c245 7 393 41 566 128 162 81 347 242 458 399 93 132
171 317 196 470 6 36 14 83 18 105 l7 40 14 -55 c23 -90 106 -249 170 -324 65
-78 163 -156 250 -201 l58 -30 -84 -50 c-247 -148 -392 -384 -431 -705 -5 -46
-10 -263 -10 -482 0 -295 -4 -426 -15 -511 -49 -378 -210 -620 -493 -743 -40
-17 -76 -34 -79 -38 -3 -3 21 -82 53 -176 42 -122 63 -170 74 -170 31 0 224
70 323 118 402 192 616 482 703 947 14 73 18 186 24 585 6 462 8 500 28 573
34 125 77 204 151 278 98 97 224 149 369 149 l62 0 0 225 0 225 -63 0 c-79 0
"/>
</g>
</svg>
